<svg xmlns="http://www.w3.org/2000/svg" viewBox="0 0 96.507 55.823">
  <g clip-rule="evenodd" fill-rule="evenodd" stroke-miterlimit="10" opacity=".5">
    <path d="M4.526 5.236l20.89 40.391L43.12 26.495 4.526 5.236" fill="#1f6d53" stroke="#203e34" stroke-width="2.7569236"/>
    <path d="M90.919 14.448L59.76 49.524 43.12 26.85l47.09-12.755" fill="#206d53" stroke="#203e34" stroke-width="2.7569236"/>
    <path d="M5.589 2.756A2.834 2.834 0 018.42 5.59 2.833 2.833 0 115.59 2.756z" fill="#07bd81"/>
    <path d="M5.589 0A5.59 5.59 0 000 5.59 5.59 5.59 0 105.589 0zm0 2.756A2.834 2.834 0 018.42 5.59 2.833 2.833 0 115.59 2.756z" fill="#203e34"/>
    <path d="M25.416 43.147a2.833 2.833 0 012.833 2.834 2.834 2.834 0 11-2.833-2.834z" fill="#08bd80"/>
    <path d="M25.416 40.39a5.59 5.59 0 00-5.588 5.591 5.59 5.59 0 1011.177 0 5.59 5.59 0 00-5.589-5.59zm0 2.757a2.833 2.833 0 012.833 2.834 2.834 2.834 0 11-2.833-2.834z" fill="#203e34"/>
    <path d="M42.766 24.723a2.833 2.833 0 012.832 2.834 2.834 2.834 0 11-2.832-2.834z" fill="#07bd81"/>
    <path d="M42.766 21.967a5.59 5.59 0 00-5.589 5.59 5.59 5.59 0 1011.177 0 5.59 5.59 0 00-5.588-5.59zm0 2.756a2.833 2.833 0 012.832 2.834 2.834 2.834 0 11-2.832-2.834z" fill="#203e34"/>
    <g>
      <path d="M59.76 47.399a2.833 2.833 0 012.833 2.834 2.834 2.834 0 11-2.832-2.834z" fill="#07bd81"/>
      <path d="M59.76 44.642a5.59 5.59 0 00-5.588 5.591 5.59 5.59 0 105.589-5.59zm0 2.757a2.833 2.833 0 012.833 2.834 2.834 2.834 0 11-2.832-2.834z" fill="#203e34"/>
    </g>
    <g>
      <path d="M90.919 11.26a2.833 2.833 0 012.832 2.834 2.834 2.834 0 11-2.832-2.835z" fill="#07bd81"/>
      <path d="M90.919 8.503a5.59 5.59 0 00-5.589 5.59 5.59 5.59 0 1011.177 0 5.59 5.59 0 00-5.588-5.59zm0 2.756a2.833 2.833 0 012.832 2.835 2.834 2.834 0 11-2.832-2.835z" fill="#1f3d33"/>
    </g>
  </g>
</svg>

